PathFileType	4	(X/Y/Z)	Kaydara																																																																																																																									
DataRate	CameraRate	NumFrames	NumMarkers	Units	OrigDataRate	OrigDataStartFrame	OrigNumFrames																																																																																																																					
30	30	4	41	mm	30	98	195																																																																																																																					
Frame#	Time	NABA_LFHD			NABA_RFHD			NABA_LBHD			NABA_RBHD			NABA_LFTShould			NABA_RFTShould			NABA_LRRShould			NABA_RRRShould			NABA_T10			NABA_STRN			NABA_TRUN			NABA_LSHO			NABA_LUPA			NABA_LELB			NABA_LFRM			NABA_LWRA			NABA_LWRB			NABA_LFIN			NABA_RSHO			NABA_RUPA			NABA_RELB			NABA_RFRM			NABA_RWRA			NABA_RWRB			NABA_RFIN			NABA_LFWT			NABA_RFWT			NABA_LBWT			NABA_RBWT			NABA_LTHI			NABA_LKNE			NABA_LSHN			NABA_LANK			NABA_LHEE			NABA_LTOE			NABA_RTHI			NABA_RKNE			NABA_RSHN			NABA_RANK			NABA_RHEE			NABA_RTOE		
		X1	Y1	Z1	X2	Y2	Z2	X3	Y3	Z3	X4	Y4	Z4	X5	Y5	Z5	X6	Y6	Z6	X7	Y7	Z7	X8	Y8	Z8	X9	Y9	Z9	X10	Y10	Z10	X11	Y11	Z11	X12	Y12	Z12	X13	Y13	Z13	X14	Y14	Z14	X15	Y15	Z15	X16	Y16	Z16	X17	Y17	Z17	X18	Y18	Z18	X19	Y19	Z19	X20	Y20	Z20	X21	Y21	Z21	X22	Y22	Z22	X23	Y23	Z23	X24	Y24	Z24	X25	Y25	Z25	X26	Y26	Z26	X27	Y27	Z27	X28	Y28	Z28	X29	Y29	Z29	X30	Y30	Z30	X31	Y31	Z31	X32	Y32	Z32	X33	Y33	Z33	X34	Y34	Z34	X35	Y35	Z35	X36	Y36	Z36	X37	Y37	Z37	X38	Y38	Z38	X39	Y39	Z39	X40	Y40	Z40	X41	Y41	Z41
																																																																																																																												
98	3.243	208.03963	1569.90173	-1056.8364	47.95772	1570.58395	-992.45987	194.5472	1505.26154	-1165.91797	-5.79011	1529.54315	-1069.61273	176.67252	1326.48544	-977.95891	51.2048	1319.95407	-963.79189	172.8648	1346.31287	-1111.44608	33.53659	1350.28214	-1087.67883	110.84484	1172.94556	-1135.65254	119.98534	1281.36795	-912.66975	126.53306	1195.33112	-844.56299	261.4892	1356.59164	-1036.97456	362.95795	1203.5099	-883.80348	371.49338	1171.29761	-790.32387	387.25319	1106.38756	-749.09485	334.57848	1039.40201	-594.36459	399.01257	1075.96497	-586.63372	363.61675	1087.73552	-527.22038	-22.06464	1354.80179	-1008.10463	-120.94997	1197.45735	-893.23296	-129.33455	1169.99847	-756.71829	-126.29312	1125.11925	-667.8788	-24.47272	1072.85011	-551.16352	-82.00429	1111.94794	-519.40578	-39.43398	1118.58932	-487.46548	244.17465	905.98564	-903.78769	-19.40693	896.2793	-912.31453	199.98135	965.96161	-1077.63412	30.84328	981.72546	-1080.94368	260.12182	606.84734	-941.80618	248.17276	491.01833	-829.55902	199.10152	318.86662	-738.09143	232.45237	153.65653	-741.91635	178.47765	86.73913	-778.37219	192.88109	120.84531	-602.09923	-0.38391	650.35408	-1122.08351	11.44074	461.31832	-1067.62405	38.96739	306.64421	-1164.78653	54.29622	171.40991	-1315.90759	108.81333	163.2481	-1393.12836	76.78259	73.91106	-1243.31474
99	3.277	215.73673	1566.26694	-1029.38843	60.62127	1573.91434	-954.59808	193.7076	1495.47531	-1132.94495	0.98291	1529.43832	-1025.30273	186.64618	1316.4859	-933.17001	57.57722	1314.95102	-915.82184	179.1535	1333.70102	-1067.53525	34.83185	1345.04166	-1039.08051	110.01156	1165.76385	-1086.34048	128.35277	1273.97682	-865.46661	134.19813	1188.56918	-796.51283	274.93118	1334.4519	-996.66656	371.18916	1153.79578	-866.35307	382.6862	1108.91602	-779.58183	395.70248	1038.66371	-747.96936	343.84995	955.54825	-602.45834	409.96456	986.06613	-591.27651	378.26485	993.81584	-530.326	-24.21461	1342.13364	-954.95049	-117.19059	1161.98135	-865.81238	-136.3674	1116.33774	-738.47969	-136.60398	1058.17871	-657.24335	-38.04758	994.73923	-542.80315	-99.99323	1025.91217	-510.7011	-61.7579	1040.57159	-481.50734	247.86264	903.02834	-863.21938	-16.43869	892.56088	-869.22066	200.57198	967.9158	-1035.21233	31.88148	983.20274	-1035.35179	259.02504	606.72783	-904.28307	246.23871	489.74567	-792.16797	195.4987	309.53175	-712.65648	225.55027	144.87121	-733.79738	169.78086	82.20573	-775.54832	187.5148	101.99203	-598.32413	0.46365	655.6002	-1089.77852	9.96734	464.12472	-1044.4735	34.8768	313.61382	-1147.87628	47.97921	183.713	-1303.72971	101.18078	178.9452	-1381.29959	74.26536	73.26555	-1238.41309
100	3.31	223.65957	1559.01031	-999.39377	73.4302	1575.97031	-916.24229	194.51384	1478.65936	-1093.88321	9.13178	1525.75348	-978.6515	196.84902	1307.96539	-882.16324	67.39059	1311.80069	-859.77707	182.07487	1328.06641	-1015.50117	39.38896	1343.8298	-981.89545	108.92607	1162.44713	-1032.44324	139.37958	1267.67441	-811.76834	145.18857	1181.19423	-744.15543	283.70407	1317.56622	-948.71994	374.89868	1110.20645	-859.52736	390.39112	1048.97964	-783.31467	399.1283	972.70218	-766.17874	349.34029	869.8848	-632.64954	418.39531	888.5244	-624.08051	397.95181	881.4769	-558.68202	-19.60984	1335.25238	-893.5836	-111.86312	1142.38464	-843.72742	-141.93126	1069.90372	-732.90939	-149.17505	994.20143	-667.80937	-60.16429	904.48639	-564.19971	-124.219	929.35249	-530.38403	-90.15062	940.97954	-498.75786	251.81599	897.91061	-820.78911	-12.38541	886.19011	-823.10402	201.72195	968.65341	-989.32732	32.6394	982.89444	-986.29295	258.39102	604.27288	-866.12343	243.38079	485.53608	-756.4753	189.64121	302.56119	-687.12212	217.70824	140.59133	-723.97781	163.76347	81.94676	-767.56386	176.13142	85.2645	-589.0136	1.19606	658.51624	-1054.81407	9.20349	464.93904	-1018.72757	31.66777	319.12415	-1128.42163	41.66497	194.89729	-1288.92242	93.17739	194.05857	-1366.37985	72.08782	71.71723	-1233.54713
101	3.343	230.11477	1552.06757	-963.00674	82.41715	1580.04807	-877.13264	197.92988	1460.42191	-1045.41451	16.48228	1521.84357	-930.82008	207.8791	1301.69083	-826.01135	80.30825	1310.62378	-797.97928	186.48863	1323.36426	-958.04253	44.43272	1346.40228	-917.4604	106.56698	1163.22594	-974.6875	152.67553	1261.74911	-752.79884	158.61318	1172.47032	-688.69576	290.61478	1304.87442	-897.32361	373.85227	1080.72067	-855.25192	390.97218	1002.21771	-799.72748	395.92224	924.49661	-802.22649	354.0625	794.04724	-693.32497	424.72507	805.27672	-689.91661	411.89079	770.32585	-628.83663	-11.1872	1333.2872	-825.06126	-108.35353	1137.27318	-823.42766	-148.0648	1040.29602	-739.17938	-162.87374	949.59778	-700.04333	-86.20169	827.5132	-622.8793	-151.67849	843.17017	-588.39684	-124.49687	830.93338	-549.69917	257.32561	896.74019	-779.12903	-6.22531	879.68681	-775.38239	204.23189	972.23297	-943.69148	31.07247	981.64688	-937.11891	261.07899	606.79974	-828.81836	242.7611	487.80273	-716.71898	182.29	298.23015	-659.11041	217.51987	137.36826	-698.27827	168.56293	85.39694	-756.0186	169.83873	70.47115	-578.10097	2.28607	659.01825	-1013.68614	9.00654	464.45118	-982.50725	27.86129	324.01802	-1100.07751	34.91517	207.13795	-1266.11633	85.27726	211.25332	-1342.62238	71.28776	68.59551	-1226.21277
